<svg width="65" height="12" viewBox="0 0 65 12" fill="none" xmlns="http://www.w3.org/2000/svg">
<path d="M5.80262 0.417433L4.21589 3.52017L0.665805 4.01933C0.0291704 4.10838 -0.225969 4.86532 0.235712 5.29886L2.80412 7.71262L2.19664 11.1224C2.0873 11.7387 2.76038 12.2004 3.32412 11.9121L6.5 10.3021L9.67588 11.9121C10.2396 12.198 10.9127 11.7387 10.8034 11.1224L10.1959 7.71262L12.7643 5.29886C13.226 4.86532 12.9708 4.10838 12.3342 4.01933L8.78411 3.52017L7.19738 0.417433C6.91308 -0.135624 6.08935 -0.142654 5.80262 0.417433Z" fill="#0065FC"/>
<path d="M18.8026 0.417433L17.2159 3.52017L13.6658 4.01933C13.0292 4.10838 12.774 4.86532 13.2357 5.29886L15.8041 7.71262L15.1966 11.1224C15.0873 11.7387 15.7604 12.2004 16.3241 11.9121L19.5 10.3021L22.6759 11.9121C23.2396 12.198 23.9127 11.7387 23.8034 11.1224L23.1959 7.71262L25.7643 5.29886C26.226 4.86532 25.9708 4.10838 25.3342 4.01933L21.7841 3.52017L20.1974 0.417433C19.9131 -0.135624 19.0893 -0.142654 18.8026 0.417433Z" fill="#0065FC"/>
<path d="M31.8026 0.417433L30.2159 3.52017L26.6658 4.01933C26.0292 4.10838 25.774 4.86532 26.2357 5.29886L28.8041 7.71262L28.1966 11.1224C28.0873 11.7387 28.7604 12.2004 29.3241 11.9121L32.5 10.3021L35.6759 11.9121C36.2396 12.198 36.9127 11.7387 36.8034 11.1224L36.1959 7.71262L38.7643 5.29886C39.226 4.86532 38.9708 4.10838 38.3342 4.01933L34.7841 3.52017L33.1974 0.417433C32.9131 -0.135624 32.0893 -0.142654 31.8026 0.417433Z" fill="#0065FC"/>
<path d="M44.8026 0.417433L43.2159 3.52017L39.6658 4.01933C39.0292 4.10838 38.774 4.86532 39.2357 5.29886L41.8041 7.71262L41.1966 11.1224C41.0873 11.7387 41.7604 12.2004 42.3241 11.9121L45.5 10.3021L48.6759 11.9121C49.2396 12.198 49.9127 11.7387 49.8034 11.1224L49.1959 7.71262L51.7643 5.29886C52.226 4.86532 51.9708 4.10838 51.3342 4.01933L47.7841 3.52017L46.1974 0.417433C45.9131 -0.135624 45.0893 -0.142654 44.8026 0.417433Z" fill="#D9D9D9"/>
<path d="M57.8026 0.417433L56.2159 3.52017L52.6658 4.01933C52.0292 4.10838 51.774 4.86532 52.2357 5.29886L54.8041 7.71262L54.1966 11.1224C54.0873 11.7387 54.7604 12.2004 55.3241 11.9121L58.5 10.3021L61.6759 11.9121C62.2396 12.198 62.9127 11.7387 62.8034 11.1224L62.1959 7.71262L64.7643 5.29886C65.226 4.86532 64.9708 4.10838 64.3342 4.01933L60.7841 3.52017L59.1974 0.417433C58.9131 -0.135624 58.0893 -0.142654 57.8026 0.417433Z" fill="#D9D9D9"/>
</svg>
